<svg id="visual" viewBox="0 0 960 540" width="960" height="540" xmlns="http://www.w3.org/2000/svg" xmlns:xlink="http://www.w3.org/1999/xlink" version="1.1"><rect x="0" y="0" width="960" height="540" fill="#030c13"></rect><defs><linearGradient id="grad1_0" x1="43.8%" y1="100%" x2="100%" y2="0%"><stop offset="14.444444444444446%" stop-color="#8a01fc" stop-opacity="1"></stop><stop offset="85.55555555555554%" stop-color="#8a01fc" stop-opacity="1"></stop></linearGradient></defs><defs><linearGradient id="grad1_1" x1="43.8%" y1="100%" x2="100%" y2="0%"><stop offset="14.444444444444446%" stop-color="#8a01fc" stop-opacity="1"></stop><stop offset="85.55555555555554%" stop-color="#3534e2" stop-opacity="1"></stop></linearGradient></defs><defs><linearGradient id="grad1_2" x1="43.8%" y1="100%" x2="100%" y2="0%"><stop offset="14.444444444444446%" stop-color="#003abe" stop-opacity="1"></stop><stop offset="85.55555555555554%" stop-color="#3534e2" stop-opacity="1"></stop></linearGradient></defs><defs><linearGradient id="grad1_3" x1="43.8%" y1="100%" x2="100%" y2="0%"><stop offset="14.444444444444446%" stop-color="#003abe" stop-opacity="1"></stop><stop offset="85.55555555555554%" stop-color="#003594" stop-opacity="1"></stop></linearGradient></defs><defs><linearGradient id="grad1_4" x1="43.8%" y1="100%" x2="100%" y2="0%"><stop offset="14.444444444444446%" stop-color="#002b67" stop-opacity="1"></stop><stop offset="85.55555555555554%" stop-color="#003594" stop-opacity="1"></stop></linearGradient></defs><defs><linearGradient id="grad1_5" x1="43.8%" y1="100%" x2="100%" y2="0%"><stop offset="14.444444444444446%" stop-color="#002b67" stop-opacity="1"></stop><stop offset="85.55555555555554%" stop-color="#001d3b" stop-opacity="1"></stop></linearGradient></defs><defs><linearGradient id="grad1_6" x1="43.8%" y1="100%" x2="100%" y2="0%"><stop offset="14.444444444444446%" stop-color="#030c13" stop-opacity="1"></stop><stop offset="85.55555555555554%" stop-color="#001d3b" stop-opacity="1"></stop></linearGradient></defs><defs><linearGradient id="grad2_0" x1="0%" y1="100%" x2="56.3%" y2="0%"><stop offset="14.444444444444446%" stop-color="#8a01fc" stop-opacity="1"></stop><stop offset="85.55555555555554%" stop-color="#8a01fc" stop-opacity="1"></stop></linearGradient></defs><defs><linearGradient id="grad2_1" x1="0%" y1="100%" x2="56.3%" y2="0%"><stop offset="14.444444444444446%" stop-color="#3534e2" stop-opacity="1"></stop><stop offset="85.55555555555554%" stop-color="#8a01fc" stop-opacity="1"></stop></linearGradient></defs><defs><linearGradient id="grad2_2" x1="0%" y1="100%" x2="56.3%" y2="0%"><stop offset="14.444444444444446%" stop-color="#3534e2" stop-opacity="1"></stop><stop offset="85.55555555555554%" stop-color="#003abe" stop-opacity="1"></stop></linearGradient></defs><defs><linearGradient id="grad2_3" x1="0%" y1="100%" x2="56.3%" y2="0%"><stop offset="14.444444444444446%" stop-color="#003594" stop-opacity="1"></stop><stop offset="85.55555555555554%" stop-color="#003abe" stop-opacity="1"></stop></linearGradient></defs><defs><linearGradient id="grad2_4" x1="0%" y1="100%" x2="56.3%" y2="0%"><stop offset="14.444444444444446%" stop-color="#003594" stop-opacity="1"></stop><stop offset="85.55555555555554%" stop-color="#002b67" stop-opacity="1"></stop></linearGradient></defs><defs><linearGradient id="grad2_5" x1="0%" y1="100%" x2="56.3%" y2="0%"><stop offset="14.444444444444446%" stop-color="#001d3b" stop-opacity="1"></stop><stop offset="85.55555555555554%" stop-color="#002b67" stop-opacity="1"></stop></linearGradient></defs><defs><linearGradient id="grad2_6" x1="0%" y1="100%" x2="56.3%" y2="0%"><stop offset="14.444444444444446%" stop-color="#001d3b" stop-opacity="1"></stop><stop offset="85.55555555555554%" stop-color="#030c13" stop-opacity="1"></stop></linearGradient></defs><g transform="translate(960, 540)"><path d="M-513 0C-497 -42.4 -481.1 -84.7 -464.6 -124.5C-448.1 -164.3 -431.2 -201.4 -414 -239C-396.7 -276.6 -379.3 -314.6 -355 -355C-330.7 -395.4 -299.5 -438.2 -256.5 -444.3C-213.5 -450.3 -158.6 -419.7 -113.9 -425C-69.2 -430.3 -34.6 -471.7 0 -513L0 0Z" fill="#001626"></path><path d="M-439.7 0C-426 -36.3 -412.4 -72.6 -398.2 -106.7C-384.1 -140.8 -369.6 -172.6 -354.8 -204.9C-340.1 -237.1 -325.1 -269.6 -304.3 -304.3C-283.4 -338.9 -256.7 -375.6 -219.9 -380.8C-183 -386 -135.9 -359.7 -97.6 -364.3C-59.3 -368.9 -29.6 -404.3 0 -439.7L0 0Z" fill="#002451"></path><path d="M-366.4 0C-355 -30.3 -343.6 -60.5 -331.9 -88.9C-320.1 -117.3 -308 -143.9 -295.7 -170.7C-283.4 -197.6 -270.9 -224.7 -253.5 -253.5C-236.2 -282.4 -213.9 -313 -183.2 -317.3C-152.5 -321.7 -113.3 -299.8 -81.3 -303.6C-49.4 -307.4 -24.7 -336.9 0 -366.4L0 0Z" fill="#00307e"></path><path d="M-293.1 0C-284 -24.2 -274.9 -48.4 -265.5 -71.1C-256.1 -93.9 -246.4 -115.1 -236.5 -136.6C-226.7 -158 -216.7 -179.8 -202.8 -202.8C-188.9 -225.9 -171.2 -250.4 -146.6 -253.9C-122 -257.3 -90.6 -239.8 -65.1 -242.9C-39.5 -245.9 -19.8 -269.5 0 -293.1L0 0Z" fill="#0039a9"></path><path d="M-219.9 0C-213 -18.2 -206.2 -36.3 -199.1 -53.4C-192.1 -70.4 -184.8 -86.3 -177.4 -102.4C-170 -118.5 -162.5 -134.8 -152.1 -152.1C-141.7 -169.4 -128.4 -187.8 -109.9 -190.4C-91.5 -193 -68 -179.9 -48.8 -182.1C-29.6 -184.4 -14.8 -202.1 0 -219.9L0 0Z" fill="#0039d1"></path><path d="M-146.6 0C-142 -12.1 -137.5 -24.2 -132.7 -35.6C-128 -46.9 -123.2 -57.5 -118.3 -68.3C-113.4 -79 -108.4 -89.9 -101.4 -101.4C-94.5 -113 -85.6 -125.2 -73.3 -126.9C-61 -128.7 -45.3 -119.9 -32.5 -121.4C-19.8 -123 -9.9 -134.8 0 -146.6L0 0Z" fill="#6328f0"></path><path d="M-73.3 0C-71 -6.1 -68.7 -12.1 -66.4 -17.8C-64 -23.5 -61.6 -28.8 -59.1 -34.1C-56.7 -39.5 -54.2 -44.9 -50.7 -50.7C-47.2 -56.5 -42.8 -62.6 -36.6 -63.5C-30.5 -64.3 -22.7 -60 -16.3 -60.7C-9.9 -61.5 -4.9 -67.4 0 -73.3L0 0Z" fill="#8a01fc"></path></g><g transform="translate(0, 0)"><path d="M513 0C493.6 43.1 474.2 86.2 448.2 120.1C422.2 154 389.7 178.8 368.9 213C348.2 247.2 339.2 291 312.5 312.5C285.9 334.1 241.6 333.5 211.5 366.3C181.4 399.2 165.6 465.5 132.8 495.5C99.9 525.5 50 519.3 0 513L0 0Z" fill="#001626"></path><path d="M439.7 0C423.1 36.9 406.4 73.9 384.2 102.9C361.9 132 334 153.2 316.2 182.6C298.4 211.9 290.7 249.4 267.9 267.9C245 286.4 207.1 285.8 181.3 314C155.5 342.2 142 399 113.8 424.7C85.6 450.5 42.8 445.1 0 439.7L0 0Z" fill="#002451"></path><path d="M366.4 0C352.6 30.8 338.7 61.6 320.1 85.8C301.6 110 278.3 127.7 263.5 152.1C248.7 176.6 242.3 207.8 223.2 223.2C204.2 238.6 172.5 238.2 151.1 261.7C129.6 285.1 118.3 332.5 94.8 353.9C71.4 375.4 35.7 370.9 0 366.4L0 0Z" fill="#00307e"></path><path d="M293.1 0C282 24.6 271 49.2 256.1 68.6C241.3 88 222.7 102.1 210.8 121.7C199 141.3 193.8 166.3 178.6 178.6C163.4 190.9 138 190.6 120.9 209.3C103.7 228.1 94.7 266 75.9 283.2C57.1 300.3 28.5 296.7 0 293.1L0 0Z" fill="#0039a9"></path><path d="M219.9 0C211.5 18.5 203.2 36.9 192.1 51.5C180.9 66 167 76.6 158.1 91.3C149.2 106 145.4 124.7 133.9 133.9C122.5 143.2 103.5 142.9 90.6 157C77.8 171.1 71 199.5 56.9 212.4C42.8 225.2 21.4 222.5 0 219.9L0 0Z" fill="#0039d1"></path><path d="M146.6 0C141 12.3 135.5 24.6 128.1 34.3C120.6 44 111.3 51.1 105.4 60.9C99.5 70.6 96.9 83.1 89.3 89.3C81.7 95.5 69 95.3 60.4 104.7C51.8 114.1 47.3 133 37.9 141.6C28.5 150.2 14.3 148.4 0 146.6L0 0Z" fill="#6328f0"></path><path d="M73.3 0C70.5 6.2 67.7 12.3 64 17.2C60.3 22 55.7 25.5 52.7 30.4C49.7 35.3 48.5 41.6 44.6 44.6C40.8 47.7 34.5 47.6 30.2 52.3C25.9 57 23.7 66.5 19 70.8C14.3 75.1 7.1 74.2 0 73.3L0 0Z" fill="#8a01fc"></path></g></svg>