<svg id="visual" viewBox="0 0 960 540" width="960" height="540" xmlns="http://www.w3.org/2000/svg" xmlns:xlink="http://www.w3.org/1999/xlink" version="1.1"><rect x="0" y="0" width="960" height="540" fill="#001220"></rect><path d="M0 323L40 304.8C80 286.7 160 250.3 240 255.7C320 261 400 308 480 332.5C560 357 640 359 720 341.7C800 324.3 880 287.7 920 269.3L960 251L960 541L920 541C880 541 800 541 720 541C640 541 560 541 480 541C400 541 320 541 240 541C160 541 80 541 40 541L0 541Z" fill="#fa7268"></path><path d="M0 324L40 324.7C80 325.3 160 326.7 240 332C320 337.3 400 346.7 480 352.2C560 357.7 640 359.3 720 345C800 330.7 880 300.3 920 285.2L960 270L960 541L920 541C880 541 800 541 720 541C640 541 560 541 480 541C400 541 320 541 240 541C160 541 80 541 40 541L0 541Z" fill="#ef5f67"></path><path d="M0 360L40 358.2C80 356.3 160 352.7 240 357C320 361.3 400 373.7 480 388.2C560 402.7 640 419.3 720 423.5C800 427.7 880 419.3 920 415.2L960 411L960 541L920 541C880 541 800 541 720 541C640 541 560 541 480 541C400 541 320 541 240 541C160 541 80 541 40 541L0 541Z" fill="#e34c67"></path><path d="M0 434L40 431C80 428 160 422 240 416.8C320 411.7 400 407.3 480 407.2C560 407 640 411 720 414.8C800 418.7 880 422.3 920 424.2L960 426L960 541L920 541C880 541 800 541 720 541C640 541 560 541 480 541C400 541 320 541 240 541C160 541 80 541 40 541L0 541Z" fill="#d53867"></path><path d="M0 499L40 496C80 493 160 487 240 487.8C320 488.7 400 496.3 480 500.2C560 504 640 504 720 495.3C800 486.7 880 469.3 920 460.7L960 452L960 541L920 541C880 541 800 541 720 541C640 541 560 541 480 541C400 541 320 541 240 541C160 541 80 541 40 541L0 541Z" fill="#c62368"></path></svg>