<svg id="visual" viewBox="0 0 960 540" width="960" height="540" xmlns="http://www.w3.org/2000/svg" xmlns:xlink="http://www.w3.org/1999/xlink" version="1.1"><rect x="0" y="0" width="960" height="540" fill="#030c13"></rect><defs><linearGradient id="grad1_0" x1="43.8%" y1="100%" x2="100%" y2="0%"><stop offset="14.444444444444446%" stop-color="#ffb200" stop-opacity="1"></stop><stop offset="85.55555555555554%" stop-color="#ffb200" stop-opacity="1"></stop></linearGradient></defs><defs><linearGradient id="grad1_1" x1="43.8%" y1="100%" x2="100%" y2="0%"><stop offset="14.444444444444446%" stop-color="#ffb200" stop-opacity="1"></stop><stop offset="85.55555555555554%" stop-color="#9aa70a" stop-opacity="1"></stop></linearGradient></defs><defs><linearGradient id="grad1_2" x1="43.8%" y1="100%" x2="100%" y2="0%"><stop offset="14.444444444444446%" stop-color="#418f38" stop-opacity="1"></stop><stop offset="85.55555555555554%" stop-color="#9aa70a" stop-opacity="1"></stop></linearGradient></defs><defs><linearGradient id="grad1_3" x1="43.8%" y1="100%" x2="100%" y2="0%"><stop offset="14.444444444444446%" stop-color="#418f38" stop-opacity="1"></stop><stop offset="85.55555555555554%" stop-color="#006f4e" stop-opacity="1"></stop></linearGradient></defs><defs><linearGradient id="grad1_4" x1="43.8%" y1="100%" x2="100%" y2="0%"><stop offset="14.444444444444446%" stop-color="#004e4f" stop-opacity="1"></stop><stop offset="85.55555555555554%" stop-color="#006f4e" stop-opacity="1"></stop></linearGradient></defs><defs><linearGradient id="grad1_5" x1="43.8%" y1="100%" x2="100%" y2="0%"><stop offset="14.444444444444446%" stop-color="#004e4f" stop-opacity="1"></stop><stop offset="85.55555555555554%" stop-color="#002c38" stop-opacity="1"></stop></linearGradient></defs><defs><linearGradient id="grad1_6" x1="43.8%" y1="100%" x2="100%" y2="0%"><stop offset="14.444444444444446%" stop-color="#030c13" stop-opacity="1"></stop><stop offset="85.55555555555554%" stop-color="#002c38" stop-opacity="1"></stop></linearGradient></defs><defs><linearGradient id="grad2_0" x1="0%" y1="100%" x2="56.3%" y2="0%"><stop offset="14.444444444444446%" stop-color="#ffb200" stop-opacity="1"></stop><stop offset="85.55555555555554%" stop-color="#ffb200" stop-opacity="1"></stop></linearGradient></defs><defs><linearGradient id="grad2_1" x1="0%" y1="100%" x2="56.3%" y2="0%"><stop offset="14.444444444444446%" stop-color="#9aa70a" stop-opacity="1"></stop><stop offset="85.55555555555554%" stop-color="#ffb200" stop-opacity="1"></stop></linearGradient></defs><defs><linearGradient id="grad2_2" x1="0%" y1="100%" x2="56.3%" y2="0%"><stop offset="14.444444444444446%" stop-color="#9aa70a" stop-opacity="1"></stop><stop offset="85.55555555555554%" stop-color="#418f38" stop-opacity="1"></stop></linearGradient></defs><defs><linearGradient id="grad2_3" x1="0%" y1="100%" x2="56.3%" y2="0%"><stop offset="14.444444444444446%" stop-color="#006f4e" stop-opacity="1"></stop><stop offset="85.55555555555554%" stop-color="#418f38" stop-opacity="1"></stop></linearGradient></defs><defs><linearGradient id="grad2_4" x1="0%" y1="100%" x2="56.3%" y2="0%"><stop offset="14.444444444444446%" stop-color="#006f4e" stop-opacity="1"></stop><stop offset="85.55555555555554%" stop-color="#004e4f" stop-opacity="1"></stop></linearGradient></defs><defs><linearGradient id="grad2_5" x1="0%" y1="100%" x2="56.3%" y2="0%"><stop offset="14.444444444444446%" stop-color="#002c38" stop-opacity="1"></stop><stop offset="85.55555555555554%" stop-color="#004e4f" stop-opacity="1"></stop></linearGradient></defs><defs><linearGradient id="grad2_6" x1="0%" y1="100%" x2="56.3%" y2="0%"><stop offset="14.444444444444446%" stop-color="#002c38" stop-opacity="1"></stop><stop offset="85.55555555555554%" stop-color="#030c13" stop-opacity="1"></stop></linearGradient></defs><g transform="translate(960, 540)"><path d="M-513 0C-496 -43.3 -479 -86.5 -455 -121.9C-430.9 -157.3 -399.9 -184.8 -380.2 -219.5C-360.5 -254.2 -352.2 -296.2 -332.3 -332.3C-312.5 -368.5 -281 -398.7 -246.5 -427C-212 -455.2 -174.4 -481.5 -132.8 -495.5C-91.2 -509.5 -45.6 -511.3 0 -513L0 0Z" fill="#041d27"></path><path d="M-439.7 0C-425.1 -37.1 -410.6 -74.2 -390 -104.5C-369.4 -134.8 -342.7 -158.4 -325.9 -188.1C-309 -217.9 -301.9 -253.9 -284.9 -284.9C-267.8 -315.8 -240.9 -341.7 -211.3 -366C-181.7 -390.2 -149.5 -412.7 -113.8 -424.7C-78.2 -436.7 -39.1 -438.2 0 -439.7L0 0Z" fill="#003d46"></path><path d="M-366.4 0C-354.3 -30.9 -342.1 -61.8 -325 -87.1C-307.8 -112.3 -285.6 -132 -271.6 -156.8C-257.5 -181.6 -251.6 -211.6 -237.4 -237.4C-223.2 -263.2 -200.7 -284.8 -176.1 -305C-151.4 -325.2 -124.6 -343.9 -94.8 -353.9C-65.1 -364 -32.6 -365.2 0 -366.4L0 0Z" fill="#005f51"></path><path d="M-293.1 0C-283.4 -24.7 -273.7 -49.4 -260 -69.7C-246.2 -89.9 -228.5 -105.6 -217.2 -125.4C-206 -145.3 -201.3 -169.3 -189.9 -189.9C-178.6 -210.5 -160.6 -227.8 -140.9 -244C-121.1 -260.1 -99.6 -275.1 -75.9 -283.2C-52.1 -291.2 -26.1 -292.2 0 -293.1L0 0Z" fill="#008045"></path><path d="M-219.9 0C-212.6 -18.5 -205.3 -37.1 -195 -52.2C-184.7 -67.4 -171.4 -79.2 -162.9 -94.1C-154.5 -109 -150.9 -127 -142.4 -142.4C-133.9 -157.9 -120.4 -170.9 -105.6 -183C-90.8 -195.1 -74.7 -206.4 -56.9 -212.4C-39.1 -218.4 -19.5 -219.1 0 -219.9L0 0Z" fill="#6d9c25"></path><path d="M-146.6 0C-141.7 -12.4 -136.9 -24.7 -130 -34.8C-123.1 -44.9 -114.2 -52.8 -108.6 -62.7C-103 -72.6 -100.6 -84.6 -95 -95C-89.3 -105.3 -80.3 -113.9 -70.4 -122C-60.6 -130.1 -49.8 -137.6 -37.9 -141.6C-26.1 -145.6 -13 -146.1 0 -146.6L0 0Z" fill="#cbaf00"></path><path d="M-73.3 0C-70.9 -6.2 -68.4 -12.4 -65 -17.4C-61.6 -22.5 -57.1 -26.4 -54.3 -31.4C-51.5 -36.3 -50.3 -42.3 -47.5 -47.5C-44.6 -52.6 -40.1 -57 -35.2 -61C-30.3 -65 -24.9 -68.8 -19 -70.8C-13 -72.8 -6.5 -73 0 -73.3L0 0Z" fill="#ffb200"></path></g><g transform="translate(0, 0)"><path d="M513 0C494.8 39.2 476.7 78.4 472.3 126.6C468 174.7 477.4 231.8 444.3 256.5C411.1 281.2 335.4 273.6 294.2 294.2C252.9 314.7 246.1 363.6 219.5 380.2C192.9 396.8 146.5 381.2 106.6 398C66.8 414.7 33.4 463.9 0 513L0 0Z" fill="#041d27"></path><path d="M439.7 0C424.2 33.6 408.6 67.2 404.9 108.5C401.1 149.7 409.2 198.7 380.8 219.9C352.4 241 287.5 234.5 252.1 252.1C216.8 269.8 210.9 311.6 188.1 325.9C165.3 340.1 125.6 326.7 91.4 341.1C57.2 355.5 28.6 397.6 0 439.7L0 0Z" fill="#003d46"></path><path d="M366.4 0C353.5 28 340.5 56 337.4 90.4C334.3 124.8 341 165.6 317.3 183.2C293.7 200.9 239.6 195.4 210.1 210.1C180.6 224.8 175.8 259.7 156.8 271.6C137.8 283.4 104.7 272.3 76.2 284.3C47.7 296.2 23.8 331.3 0 366.4L0 0Z" fill="#005f51"></path><path d="M293.1 0C282.8 22.4 272.4 44.8 269.9 72.3C267.4 99.8 272.8 132.4 253.9 146.6C234.9 160.7 191.7 156.3 168.1 168.1C144.5 179.9 140.6 207.8 125.4 217.2C110.2 226.7 83.7 217.8 60.9 227.4C38.1 237 19.1 265.1 0 293.1L0 0Z" fill="#008045"></path><path d="M219.9 0C212.1 16.8 204.3 33.6 202.4 54.2C200.6 74.9 204.6 99.3 190.4 109.9C176.2 120.5 143.7 117.2 126.1 126.1C108.4 134.9 105.5 155.8 94.1 162.9C82.7 170.1 62.8 163.4 45.7 170.6C28.6 177.7 14.3 198.8 0 219.9L0 0Z" fill="#6d9c25"></path><path d="M146.6 0C141.4 11.2 136.2 22.4 135 36.2C133.7 49.9 136.4 66.2 126.9 73.3C117.5 80.3 95.8 78.2 84 84C72.3 89.9 70.3 103.9 62.7 108.6C55.1 113.4 41.9 108.9 30.5 113.7C19.1 118.5 9.5 132.5 0 146.6L0 0Z" fill="#cbaf00"></path><path d="M73.3 0C70.7 5.6 68.1 11.2 67.5 18.1C66.9 25 68.2 33.1 63.5 36.6C58.7 40.2 47.9 39.1 42 42C36.1 45 35.2 51.9 31.4 54.3C27.6 56.7 20.9 54.5 15.2 56.9C9.5 59.2 4.8 66.3 0 73.3L0 0Z" fill="#ffb200"></path></g></svg>