<svg id="visual" viewBox="0 0 960 540" width="960" height="540" xmlns="http://www.w3.org/2000/svg" xmlns:xlink="http://www.w3.org/1999/xlink" version="1.1"><rect x="0" y="0" width="960" height="540" fill="#001220"></rect><path d="M0 342L20 351.8C40 361.7 80 381.3 120 390.3C160 399.3 200 397.7 240 388.5C280 379.3 320 362.7 360 361.3C400 360 440 374 480 373.5C520 373 560 358 600 357.3C640 356.7 680 370.3 720 370.8C760 371.3 800 358.7 840 353.3C880 348 920 350 940 351L960 352L960 541L940 541C920 541 880 541 840 541C800 541 760 541 720 541C680 541 640 541 600 541C560 541 520 541 480 541C440 541 400 541 360 541C320 541 280 541 240 541C200 541 160 541 120 541C80 541 40 541 20 541L0 541Z" fill="#69befd"></path><path d="M0 371L20 377.8C40 384.7 80 398.3 120 403.7C160 409 200 406 240 403.8C280 401.7 320 400.3 360 403C400 405.7 440 412.3 480 409.2C520 406 560 393 600 387.5C640 382 680 384 720 385.2C760 386.3 800 386.7 840 383.2C880 379.7 920 372.3 940 368.7L960 365L960 541L940 541C920 541 880 541 840 541C800 541 760 541 720 541C680 541 640 541 600 541C560 541 520 541 480 541C440 541 400 541 360 541C320 541 280 541 240 541C200 541 160 541 120 541C80 541 40 541 20 541L0 541Z" fill="#42abff"></path><path d="M0 397L20 400.7C40 404.3 80 411.7 120 414C160 416.3 200 413.7 240 409.5C280 405.3 320 399.7 360 401.7C400 403.7 440 413.3 480 416.2C520 419 560 415 600 409.8C640 404.7 680 398.3 720 402.3C760 406.3 800 420.7 840 427.5C880 434.3 920 433.7 940 433.3L960 433L960 541L940 541C920 541 880 541 840 541C800 541 760 541 720 541C680 541 640 541 600 541C560 541 520 541 480 541C440 541 400 541 360 541C320 541 280 541 240 541C200 541 160 541 120 541C80 541 40 541 20 541L0 541Z" fill="#1897ff"></path><path d="M0 428L20 433.2C40 438.3 80 448.7 120 451.8C160 455 200 451 240 446.2C280 441.3 320 435.7 360 431.8C400 428 440 426 480 426C520 426 560 428 600 430.3C640 432.7 680 435.3 720 439.2C760 443 800 448 840 445.3C880 442.7 920 432.3 940 427.2L960 422L960 541L940 541C920 541 880 541 840 541C800 541 760 541 720 541C680 541 640 541 600 541C560 541 520 541 480 541C440 541 400 541 360 541C320 541 280 541 240 541C200 541 160 541 120 541C80 541 40 541 20 541L0 541Z" fill="#0081ff"></path><path d="M0 460L20 459.5C40 459 80 458 120 459.7C160 461.3 200 465.7 240 468.3C280 471 320 472 360 468.8C400 465.7 440 458.3 480 457.3C520 456.3 560 461.7 600 462C640 462.3 680 457.7 720 458C760 458.3 800 463.7 840 464.7C880 465.7 920 462.3 940 460.7L960 459L960 541L940 541C920 541 880 541 840 541C800 541 760 541 720 541C680 541 640 541 600 541C560 541 520 541 480 541C440 541 400 541 360 541C320 541 280 541 240 541C200 541 160 541 120 541C80 541 40 541 20 541L0 541Z" fill="#0069ff"></path><path d="M0 489L20 490.3C40 491.7 80 494.3 120 493.2C160 492 200 487 240 485C280 483 320 484 360 486.5C400 489 440 493 480 492.3C520 491.7 560 486.3 600 485C640 483.7 680 486.3 720 488.2C760 490 800 491 840 491C880 491 920 490 940 489.5L960 489L960 541L940 541C920 541 880 541 840 541C800 541 760 541 720 541C680 541 640 541 600 541C560 541 520 541 480 541C440 541 400 541 360 541C320 541 280 541 240 541C200 541 160 541 120 541C80 541 40 541 20 541L0 541Z" fill="#004dfc"></path><path d="M0 511L20 510.3C40 509.7 80 508.3 120 508.5C160 508.7 200 510.3 240 511.8C280 513.3 320 514.7 360 512.5C400 510.3 440 504.7 480 503.5C520 502.3 560 505.7 600 506.7C640 507.7 680 506.3 720 505.7C760 505 800 505 840 504.5C880 504 920 503 940 502.5L960 502L960 541L940 541C920 541 880 541 840 541C800 541 760 541 720 541C680 541 640 541 600 541C560 541 520 541 480 541C440 541 400 541 360 541C320 541 280 541 240 541C200 541 160 541 120 541C80 541 40 541 20 541L0 541Z" fill="#0a26f3"></path></svg>