<svg id="visual" viewBox="0 0 960 540" width="960" height="540" xmlns="http://www.w3.org/2000/svg" xmlns:xlink="http://www.w3.org/1999/xlink" version="1.1"><rect x="0" y="0" width="960" height="540" fill="#140021"></rect><path d="M236 0L291 0L291 60L272 60L272 120L284 120L284 180L235 180L235 240L294 240L294 300L265 300L265 360L228 360L228 420L241 420L241 480L241 480L241 540L0 540L0 480L0 480L0 420L0 420L0 360L0 360L0 300L0 300L0 240L0 240L0 180L0 180L0 120L0 120L0 60L0 60L0 0L0 0Z" fill="#f09712"></path><path d="M231 0L269 0L269 60L208 60L208 120L203 120L203 180L220 180L220 240L263 240L263 300L242 300L242 360L242 360L242 420L239 420L239 480L246 480L246 540L0 540L0 480L0 480L0 420L0 420L0 360L0 360L0 300L0 300L0 240L0 240L0 180L0 180L0 120L0 120L0 60L0 60L0 0L0 0Z" fill="#dc8610"></path><path d="M169 0L215 0L215 60L201 60L201 120L221 120L221 180L197 180L197 240L199 240L199 300L191 300L191 360L169 360L169 420L173 420L173 480L190 480L190 540L0 540L0 480L0 480L0 420L0 420L0 360L0 360L0 300L0 300L0 240L0 240L0 180L0 180L0 120L0 120L0 60L0 60L0 0L0 0Z" fill="#c8760e"></path><path d="M153 0L147 0L147 60L198 60L198 120L205 120L205 180L195 180L195 240L163 240L163 300L141 300L141 360L184 360L184 420L202 420L202 480L192 480L192 540L0 540L0 480L0 480L0 420L0 420L0 360L0 360L0 300L0 300L0 240L0 240L0 180L0 180L0 120L0 120L0 60L0 60L0 0L0 0Z" fill="#b4660b"></path><path d="M156 0L141 0L141 60L160 60L160 120L129 120L129 180L145 180L145 240L149 240L149 300L145 300L145 360L142 360L142 420L137 420L137 480L120 480L120 540L0 540L0 480L0 480L0 420L0 420L0 360L0 360L0 300L0 300L0 240L0 240L0 180L0 180L0 120L0 120L0 60L0 60L0 0L0 0Z" fill="#a05709"></path><path d="M110 0L107 0L107 60L116 60L116 120L118 120L118 180L96 180L96 240L103 240L103 300L108 300L108 360L103 360L103 420L95 420L95 480L88 480L88 540L0 540L0 480L0 480L0 420L0 420L0 360L0 360L0 300L0 300L0 240L0 240L0 180L0 180L0 120L0 120L0 60L0 60L0 0L0 0Z" fill="#8c4806"></path><path d="M82 0L88 0L88 60L83 60L83 120L63 120L63 180L72 180L72 240L77 240L77 300L72 300L72 360L84 360L84 420L57 420L57 480L79 480L79 540L0 540L0 480L0 480L0 420L0 420L0 360L0 360L0 300L0 300L0 240L0 240L0 180L0 180L0 120L0 120L0 60L0 60L0 0L0 0Z" fill="#783a04"></path><path d="M28 0L37 0L37 60L28 60L28 120L40 120L40 180L31 180L31 240L27 240L27 300L59 300L59 360L53 360L53 420L28 420L28 480L31 480L31 540L0 540L0 480L0 480L0 420L0 420L0 360L0 360L0 300L0 300L0 240L0 240L0 180L0 180L0 120L0 120L0 60L0 60L0 0L0 0Z" fill="#642d00"></path></svg>